<mxfile host="app.diagrams.net" modified="2023-11-06T23:09:22.664Z" agent="Mozilla/5.0 (Windows NT 10.0; Win64; x64; rv:109.0) Gecko/20100101 Firefox/119.0" etag="v0GAG0LWE0z1H5Sr3BCI" version="22.0.8" type="device">
  <diagram name="PÃ¡gina-1" id="jIXBLrEDbQagTesIU2xj">
    <mxGraphModel dx="1354" dy="623" grid="1" gridSize="10" guides="1" tooltips="1" connect="1" arrows="1" fold="1" page="1" pageScale="1" pageWidth="827" pageHeight="1169" math="0" shadow="0">
      <root>
        <mxCell id="0" />
        <mxCell id="1" parent="0" />
        <mxCell id="Bi9sQ5XLvggIu4Hyb42E-1" value="Cliente" style="swimlane;fontStyle=1;align=center;verticalAlign=top;childLayout=stackLayout;horizontal=1;startSize=26;horizontalStack=0;resizeParent=1;resizeParentMax=0;resizeLast=0;collapsible=1;marginBottom=0;whiteSpace=wrap;html=1;" vertex="1" parent="1">
          <mxGeometry x="100" y="140" width="160" height="170" as="geometry" />
        </mxCell>
        <mxCell id="Bi9sQ5XLvggIu4Hyb42E-2" value="&lt;div&gt;-Nome: string&lt;/div&gt;&lt;div&gt;-CPF: string&lt;/div&gt;&lt;div&gt;-Endereco: string&lt;/div&gt;&lt;div&gt;-Email: string&lt;/div&gt;&lt;div&gt;-Saldo: Float&lt;br&gt;&lt;/div&gt;" style="text;strokeColor=none;fillColor=none;align=left;verticalAlign=top;spacingLeft=4;spacingRight=4;overflow=hidden;rotatable=0;points=[[0,0.5],[1,0.5]];portConstraint=eastwest;whiteSpace=wrap;html=1;" vertex="1" parent="Bi9sQ5XLvggIu4Hyb42E-1">
          <mxGeometry y="26" width="160" height="84" as="geometry" />
        </mxCell>
        <mxCell id="Bi9sQ5XLvggIu4Hyb42E-3" value="" style="line;strokeWidth=1;fillColor=none;align=left;verticalAlign=middle;spacingTop=-1;spacingLeft=3;spacingRight=3;rotatable=0;labelPosition=right;points=[];portConstraint=eastwest;strokeColor=inherit;" vertex="1" parent="Bi9sQ5XLvggIu4Hyb42E-1">
          <mxGeometry y="110" width="160" height="8" as="geometry" />
        </mxCell>
        <mxCell id="Bi9sQ5XLvggIu4Hyb42E-4" value="&lt;div&gt;+AdicionarSaldo(Float):Float&lt;/div&gt;&lt;div&gt;+ComprarJogo():Jogo&lt;/div&gt;&lt;div&gt;+BaixarAtualizacao(Jogo)&lt;br&gt;&lt;/div&gt;&lt;div&gt;&lt;br&gt;&lt;/div&gt;" style="text;strokeColor=none;fillColor=none;align=left;verticalAlign=top;spacingLeft=4;spacingRight=4;overflow=hidden;rotatable=0;points=[[0,0.5],[1,0.5]];portConstraint=eastwest;whiteSpace=wrap;html=1;" vertex="1" parent="Bi9sQ5XLvggIu4Hyb42E-1">
          <mxGeometry y="118" width="160" height="52" as="geometry" />
        </mxCell>
        <mxCell id="Bi9sQ5XLvggIu4Hyb42E-6" value="Desenvolvedora" style="swimlane;fontStyle=1;align=center;verticalAlign=top;childLayout=stackLayout;horizontal=1;startSize=26;horizontalStack=0;resizeParent=1;resizeParentMax=0;resizeLast=0;collapsible=1;marginBottom=0;whiteSpace=wrap;html=1;" vertex="1" parent="1">
          <mxGeometry x="710" y="410" width="180" height="140" as="geometry" />
        </mxCell>
        <mxCell id="Bi9sQ5XLvggIu4Hyb42E-7" value="&lt;div&gt;-NomeDesenvolvedora: string&lt;/div&gt;&lt;div&gt;-CNPJ:string&lt;/div&gt;&lt;div&gt;-Endereco: string&lt;br&gt;&lt;/div&gt;" style="text;strokeColor=none;fillColor=none;align=left;verticalAlign=top;spacingLeft=4;spacingRight=4;overflow=hidden;rotatable=0;points=[[0,0.5],[1,0.5]];portConstraint=eastwest;whiteSpace=wrap;html=1;" vertex="1" parent="Bi9sQ5XLvggIu4Hyb42E-6">
          <mxGeometry y="26" width="180" height="64" as="geometry" />
        </mxCell>
        <mxCell id="Bi9sQ5XLvggIu4Hyb42E-8" value="" style="line;strokeWidth=1;fillColor=none;align=left;verticalAlign=middle;spacingTop=-1;spacingLeft=3;spacingRight=3;rotatable=0;labelPosition=right;points=[];portConstraint=eastwest;strokeColor=inherit;" vertex="1" parent="Bi9sQ5XLvggIu4Hyb42E-6">
          <mxGeometry y="90" width="180" height="8" as="geometry" />
        </mxCell>
        <mxCell id="Bi9sQ5XLvggIu4Hyb42E-9" value="&lt;div&gt;+ListarJogo(Jogo)&lt;/div&gt;&lt;div&gt;+atualizarJogo(Jogo)&lt;br&gt;&lt;/div&gt;&lt;div&gt;&lt;br&gt;&lt;/div&gt;" style="text;strokeColor=none;fillColor=none;align=left;verticalAlign=top;spacingLeft=4;spacingRight=4;overflow=hidden;rotatable=0;points=[[0,0.5],[1,0.5]];portConstraint=eastwest;whiteSpace=wrap;html=1;" vertex="1" parent="Bi9sQ5XLvggIu4Hyb42E-6">
          <mxGeometry y="98" width="180" height="42" as="geometry" />
        </mxCell>
        <mxCell id="Bi9sQ5XLvggIu4Hyb42E-14" value="Pedido" style="swimlane;fontStyle=1;align=center;verticalAlign=top;childLayout=stackLayout;horizontal=1;startSize=26;horizontalStack=0;resizeParent=1;resizeParentMax=0;resizeLast=0;collapsible=1;marginBottom=0;whiteSpace=wrap;html=1;" vertex="1" parent="1">
          <mxGeometry x="370" y="140" width="160" height="150" as="geometry" />
        </mxCell>
        <mxCell id="Bi9sQ5XLvggIu4Hyb42E-15" value="&lt;div&gt;-IDnumeroPedido: int&lt;/div&gt;&lt;div&gt;-dataPedido: Date&lt;/div&gt;&lt;div&gt;-PrecoTotal: Float&lt;/div&gt;&lt;div&gt;-JogoComprado: Jogo&lt;br&gt;&lt;/div&gt;" style="text;strokeColor=none;fillColor=none;align=left;verticalAlign=top;spacingLeft=4;spacingRight=4;overflow=hidden;rotatable=0;points=[[0,0.5],[1,0.5]];portConstraint=eastwest;whiteSpace=wrap;html=1;" vertex="1" parent="Bi9sQ5XLvggIu4Hyb42E-14">
          <mxGeometry y="26" width="160" height="64" as="geometry" />
        </mxCell>
        <mxCell id="Bi9sQ5XLvggIu4Hyb42E-16" value="" style="line;strokeWidth=1;fillColor=none;align=left;verticalAlign=middle;spacingTop=-1;spacingLeft=3;spacingRight=3;rotatable=0;labelPosition=right;points=[];portConstraint=eastwest;strokeColor=inherit;" vertex="1" parent="Bi9sQ5XLvggIu4Hyb42E-14">
          <mxGeometry y="90" width="160" height="8" as="geometry" />
        </mxCell>
        <mxCell id="Bi9sQ5XLvggIu4Hyb42E-17" value="&lt;div&gt;+CalcularPrecoTotal()&lt;/div&gt;&lt;div&gt;&lt;br&gt;&lt;/div&gt;" style="text;strokeColor=none;fillColor=none;align=left;verticalAlign=top;spacingLeft=4;spacingRight=4;overflow=hidden;rotatable=0;points=[[0,0.5],[1,0.5]];portConstraint=eastwest;whiteSpace=wrap;html=1;" vertex="1" parent="Bi9sQ5XLvggIu4Hyb42E-14">
          <mxGeometry y="98" width="160" height="52" as="geometry" />
        </mxCell>
        <mxCell id="Bi9sQ5XLvggIu4Hyb42E-18" value="Jogo" style="swimlane;fontStyle=1;align=center;verticalAlign=top;childLayout=stackLayout;horizontal=1;startSize=26;horizontalStack=0;resizeParent=1;resizeParentMax=0;resizeLast=0;collapsible=1;marginBottom=0;whiteSpace=wrap;html=1;" vertex="1" parent="1">
          <mxGeometry x="365" y="400" width="170" height="150" as="geometry" />
        </mxCell>
        <mxCell id="Bi9sQ5XLvggIu4Hyb42E-19" value="&lt;div&gt;-NomeJogo: string&lt;/div&gt;&lt;div&gt;-tamanhoJogo: float&lt;/div&gt;&lt;div&gt;-tipoJogo: string&lt;/div&gt;&lt;div&gt;-Preco: float&lt;/div&gt;&lt;div&gt;-Versao: Float&lt;br&gt;&lt;/div&gt;&lt;div&gt;&lt;br&gt;&lt;/div&gt;&lt;div&gt;&lt;br&gt;&lt;/div&gt;&lt;div&gt;&lt;br&gt;&lt;br&gt;&lt;/div&gt;" style="text;strokeColor=none;fillColor=none;align=left;verticalAlign=top;spacingLeft=4;spacingRight=4;overflow=hidden;rotatable=0;points=[[0,0.5],[1,0.5]];portConstraint=eastwest;whiteSpace=wrap;html=1;" vertex="1" parent="Bi9sQ5XLvggIu4Hyb42E-18">
          <mxGeometry y="26" width="170" height="84" as="geometry" />
        </mxCell>
        <mxCell id="Bi9sQ5XLvggIu4Hyb42E-20" value="" style="line;strokeWidth=1;fillColor=none;align=left;verticalAlign=middle;spacingTop=-1;spacingLeft=3;spacingRight=3;rotatable=0;labelPosition=right;points=[];portConstraint=eastwest;strokeColor=inherit;" vertex="1" parent="Bi9sQ5XLvggIu4Hyb42E-18">
          <mxGeometry y="110" width="170" height="8" as="geometry" />
        </mxCell>
        <mxCell id="Bi9sQ5XLvggIu4Hyb42E-21" value="+AtualizarVersao(jogo):" style="text;strokeColor=none;fillColor=none;align=left;verticalAlign=top;spacingLeft=4;spacingRight=4;overflow=hidden;rotatable=0;points=[[0,0.5],[1,0.5]];portConstraint=eastwest;whiteSpace=wrap;html=1;" vertex="1" parent="Bi9sQ5XLvggIu4Hyb42E-18">
          <mxGeometry y="118" width="170" height="32" as="geometry" />
        </mxCell>
        <mxCell id="Bi9sQ5XLvggIu4Hyb42E-45" value="" style="edgeStyle=orthogonalEdgeStyle;rounded=0;orthogonalLoop=1;jettySize=auto;html=1;" edge="1" parent="1" source="Bi9sQ5XLvggIu4Hyb42E-22">
          <mxGeometry relative="1" as="geometry">
            <mxPoint x="363" y="490" as="targetPoint" />
          </mxGeometry>
        </mxCell>
        <mxCell id="Bi9sQ5XLvggIu4Hyb42E-22" value="Biblioteca" style="swimlane;fontStyle=1;align=center;verticalAlign=top;childLayout=stackLayout;horizontal=1;startSize=26;horizontalStack=0;resizeParent=1;resizeParentMax=0;resizeLast=0;collapsible=1;marginBottom=0;whiteSpace=wrap;html=1;" vertex="1" parent="1">
          <mxGeometry x="100" y="440" width="160" height="100" as="geometry" />
        </mxCell>
        <mxCell id="Bi9sQ5XLvggIu4Hyb42E-23" value="&lt;div&gt;-Jogos: list&amp;lt;Jogo&amp;gt;&lt;/div&gt;&lt;div&gt;&lt;br&gt;&lt;/div&gt;" style="text;strokeColor=none;fillColor=none;align=left;verticalAlign=top;spacingLeft=4;spacingRight=4;overflow=hidden;rotatable=0;points=[[0,0.5],[1,0.5]];portConstraint=eastwest;whiteSpace=wrap;html=1;" vertex="1" parent="Bi9sQ5XLvggIu4Hyb42E-22">
          <mxGeometry y="26" width="160" height="24" as="geometry" />
        </mxCell>
        <mxCell id="Bi9sQ5XLvggIu4Hyb42E-24" value="" style="line;strokeWidth=1;fillColor=none;align=left;verticalAlign=middle;spacingTop=-1;spacingLeft=3;spacingRight=3;rotatable=0;labelPosition=right;points=[];portConstraint=eastwest;strokeColor=inherit;" vertex="1" parent="Bi9sQ5XLvggIu4Hyb42E-22">
          <mxGeometry y="50" width="160" height="8" as="geometry" />
        </mxCell>
        <mxCell id="Bi9sQ5XLvggIu4Hyb42E-25" value="+VisualizarJogos(): " style="text;strokeColor=none;fillColor=none;align=left;verticalAlign=top;spacingLeft=4;spacingRight=4;overflow=hidden;rotatable=0;points=[[0,0.5],[1,0.5]];portConstraint=eastwest;whiteSpace=wrap;html=1;" vertex="1" parent="Bi9sQ5XLvggIu4Hyb42E-22">
          <mxGeometry y="58" width="160" height="42" as="geometry" />
        </mxCell>
        <mxCell id="Bi9sQ5XLvggIu4Hyb42E-26" value="" style="edgeStyle=orthogonalEdgeStyle;rounded=0;orthogonalLoop=1;jettySize=auto;html=1;exitX=1.006;exitY=0.405;exitDx=0;exitDy=0;exitPerimeter=0;" edge="1" parent="1" source="Bi9sQ5XLvggIu4Hyb42E-2">
          <mxGeometry relative="1" as="geometry">
            <mxPoint x="370" y="200" as="targetPoint" />
          </mxGeometry>
        </mxCell>
        <mxCell id="Bi9sQ5XLvggIu4Hyb42E-27" value="1" style="text;html=1;align=center;verticalAlign=middle;resizable=0;points=[];autosize=1;strokeColor=none;fillColor=none;" vertex="1" parent="1">
          <mxGeometry x="255" y="170" width="30" height="30" as="geometry" />
        </mxCell>
        <mxCell id="Bi9sQ5XLvggIu4Hyb42E-28" value="1*" style="text;html=1;align=center;verticalAlign=middle;resizable=0;points=[];autosize=1;strokeColor=none;fillColor=none;" vertex="1" parent="1">
          <mxGeometry x="340" y="170" width="30" height="30" as="geometry" />
        </mxCell>
        <mxCell id="Bi9sQ5XLvggIu4Hyb42E-35" value="" style="edgeStyle=orthogonalEdgeStyle;rounded=0;orthogonalLoop=1;jettySize=auto;html=1;exitX=0.544;exitY=1.058;exitDx=0;exitDy=0;exitPerimeter=0;entryX=0.5;entryY=0;entryDx=0;entryDy=0;" edge="1" parent="1" source="Bi9sQ5XLvggIu4Hyb42E-17" target="Bi9sQ5XLvggIu4Hyb42E-18">
          <mxGeometry relative="1" as="geometry">
            <mxPoint x="271" y="210" as="sourcePoint" />
            <mxPoint x="380" y="210" as="targetPoint" />
            <Array as="points">
              <mxPoint x="450" y="293" />
            </Array>
          </mxGeometry>
        </mxCell>
        <mxCell id="Bi9sQ5XLvggIu4Hyb42E-36" value="1*" style="text;html=1;align=center;verticalAlign=middle;resizable=0;points=[];autosize=1;strokeColor=none;fillColor=none;" vertex="1" parent="1">
          <mxGeometry x="450" y="290" width="30" height="30" as="geometry" />
        </mxCell>
        <mxCell id="Bi9sQ5XLvggIu4Hyb42E-37" value="1" style="text;html=1;align=center;verticalAlign=middle;resizable=0;points=[];autosize=1;strokeColor=none;fillColor=none;" vertex="1" parent="1">
          <mxGeometry x="450" y="370" width="30" height="30" as="geometry" />
        </mxCell>
        <mxCell id="Bi9sQ5XLvggIu4Hyb42E-39" value="" style="edgeStyle=orthogonalEdgeStyle;rounded=0;orthogonalLoop=1;jettySize=auto;html=1;exitX=0;exitY=0.5;exitDx=0;exitDy=0;entryX=1;entryY=0.5;entryDx=0;entryDy=0;" edge="1" parent="1" source="Bi9sQ5XLvggIu4Hyb42E-7" target="Bi9sQ5XLvggIu4Hyb42E-19">
          <mxGeometry relative="1" as="geometry">
            <mxPoint x="271" y="210" as="sourcePoint" />
            <mxPoint x="380" y="210" as="targetPoint" />
          </mxGeometry>
        </mxCell>
        <mxCell id="Bi9sQ5XLvggIu4Hyb42E-40" value="1*" style="text;html=1;align=center;verticalAlign=middle;resizable=0;points=[];autosize=1;strokeColor=none;fillColor=none;" vertex="1" parent="1">
          <mxGeometry x="535" y="440" width="30" height="30" as="geometry" />
        </mxCell>
        <mxCell id="Bi9sQ5XLvggIu4Hyb42E-41" value="1" style="text;html=1;align=center;verticalAlign=middle;resizable=0;points=[];autosize=1;strokeColor=none;fillColor=none;" vertex="1" parent="1">
          <mxGeometry x="680" y="440" width="30" height="30" as="geometry" />
        </mxCell>
        <mxCell id="Bi9sQ5XLvggIu4Hyb42E-42" value="" style="edgeStyle=orthogonalEdgeStyle;rounded=0;orthogonalLoop=1;jettySize=auto;html=1;entryX=0.5;entryY=0;entryDx=0;entryDy=0;exitX=0.519;exitY=1;exitDx=0;exitDy=0;exitPerimeter=0;" edge="1" parent="1" source="Bi9sQ5XLvggIu4Hyb42E-4" target="Bi9sQ5XLvggIu4Hyb42E-22">
          <mxGeometry relative="1" as="geometry">
            <mxPoint x="180" y="340" as="sourcePoint" />
            <mxPoint x="380" y="210" as="targetPoint" />
          </mxGeometry>
        </mxCell>
        <mxCell id="Bi9sQ5XLvggIu4Hyb42E-43" value="1" style="text;html=1;align=center;verticalAlign=middle;resizable=0;points=[];autosize=1;strokeColor=none;fillColor=none;" vertex="1" parent="1">
          <mxGeometry x="175" y="308" width="30" height="30" as="geometry" />
        </mxCell>
        <mxCell id="Bi9sQ5XLvggIu4Hyb42E-44" value="1" style="text;html=1;align=center;verticalAlign=middle;resizable=0;points=[];autosize=1;strokeColor=none;fillColor=none;" vertex="1" parent="1">
          <mxGeometry x="190" y="410" width="30" height="30" as="geometry" />
        </mxCell>
        <mxCell id="Bi9sQ5XLvggIu4Hyb42E-46" value="1*" style="text;html=1;align=center;verticalAlign=middle;resizable=0;points=[];autosize=1;strokeColor=none;fillColor=none;" vertex="1" parent="1">
          <mxGeometry x="330" y="460" width="30" height="30" as="geometry" />
        </mxCell>
        <mxCell id="Bi9sQ5XLvggIu4Hyb42E-47" value="1*" style="text;html=1;align=center;verticalAlign=middle;resizable=0;points=[];autosize=1;strokeColor=none;fillColor=none;" vertex="1" parent="1">
          <mxGeometry x="255" y="458" width="30" height="30" as="geometry" />
        </mxCell>
      </root>
    </mxGraphModel>
  </diagram>
</mxfile>
